<svg width="230" height="258" viewBox="0 0 230 258" fill="none" xmlns="http://www.w3.org/2000/svg">
<path d="M106.99 124.062C115.191 112.32 120.958 81.811 79.6246 51.5568C68.5887 101.576 93.0752 120.667 106.99 124.062Z" fill="#225E2F"/>
<path d="M84.5421 29C73.7421 43.8 78.7088 69.1667 82.5421 80L89.0421 78C79.8421 55.6 86.5421 38.6667 91.0421 33L84.5421 29Z" fill="#0A531A"/>
<path d="M103.638 123.901C102.829 109.602 88.5094 82.0522 37.317 83.8096C59.5517 129.955 90.6002 129.831 103.638 123.901Z" fill="#225E2F"/>
<path d="M102.315 125.154C106.751 111.536 103.406 80.6679 55.0662 63.7265C59.0377 114.795 88.0141 125.948 102.315 125.154Z" fill="#225E2F"/>
<path d="M93.3573 122.646C107.41 119.876 132.725 101.899 123.935 51.4361C81.2911 79.8131 85.6888 110.549 93.3573 122.646Z" fill="#225E2F"/>
<circle cx="58.2918" cy="119.194" r="22.6061" transform="rotate(-26.4935 58.2918 119.194)" fill="#811AA5"/>
<circle cx="54.6625" cy="117.324" r="18.436" transform="rotate(-26.4935 54.6625 117.324)" fill="#911ABB"/>
<circle cx="95.4272" cy="92.3461" r="22.6061" transform="rotate(-26.4935 95.4272 92.3461)" fill="#811AA5"/>
<circle cx="91.7979" cy="90.4767" r="18.436" transform="rotate(-26.4935 91.7979 90.4767)" fill="#911ABB"/>
<circle cx="139.22" cy="78.8558" r="22.6061" transform="rotate(-26.4935 139.22 78.8558)" fill="#811AA5"/>
<circle cx="135.591" cy="76.9863" r="18.436" transform="rotate(-26.4935 135.591 76.9863)" fill="#911ABB"/>
<circle cx="126.814" cy="110.053" r="22.6061" transform="rotate(-26.4935 126.814 110.053)" fill="#811AA5"/>
<circle cx="123.185" cy="108.184" r="18.436" transform="rotate(-26.4935 123.185 108.184)" fill="#911ABB"/>
<circle cx="159.218" cy="99.2966" r="22.6061" transform="rotate(-26.4935 159.218 99.2966)" fill="#811AA5"/>
<circle cx="155.589" cy="97.4271" r="18.436" transform="rotate(-26.4935 155.589 97.4271)" fill="#911ABB"/>
<circle cx="65.9102" cy="149.238" r="22.6061" transform="rotate(-26.4935 65.9102 149.238)" fill="#811AA5"/>
<circle cx="62.2809" cy="147.369" r="18.436" transform="rotate(-26.4935 62.2809 147.369)" fill="#911ABB"/>
<circle cx="90.2784" cy="128.264" r="22.6061" transform="rotate(-26.4935 90.2784 128.264)" fill="#811AA5"/>
<circle cx="86.6491" cy="126.394" r="18.436" transform="rotate(-26.4935 86.6491 126.394)" fill="#911ABB"/>
<circle cx="94.3549" cy="164.978" r="22.6061" transform="rotate(-26.4935 94.3549 164.978)" fill="#811AA5"/>
<circle cx="90.7256" cy="163.109" r="18.436" transform="rotate(-26.4935 90.7256 163.109)" fill="#911ABB"/>
<circle cx="154.462" cy="135.018" r="22.6061" transform="rotate(-26.4935 154.462 135.018)" fill="#811AA5"/>
<circle cx="150.833" cy="133.149" r="18.436" transform="rotate(-26.4935 150.833 133.149)" fill="#911ABB"/>
<circle cx="124.218" cy="145.188" r="22.6061" transform="rotate(-26.4935 124.218 145.188)" fill="#811AA5"/>
<circle cx="120.589" cy="143.319" r="18.436" transform="rotate(-26.4935 120.589 143.319)" fill="#911ABB"/>
<circle cx="124.37" cy="180.916" r="22.6061" transform="rotate(-26.4935 124.37 180.916)" fill="#811AA5"/>
<circle cx="120.741" cy="179.047" r="18.436" transform="rotate(-26.4935 120.741 179.047)" fill="#911ABB"/>
<circle cx="153.047" cy="167.603" r="22.6061" transform="rotate(-26.4935 153.047 167.603)" fill="#811AA5"/>
<circle cx="149.418" cy="165.734" r="18.436" transform="rotate(-26.4935 149.418 165.734)" fill="#911ABB"/>
<circle cx="151.039" cy="203.918" r="22.6061" transform="rotate(-26.4935 151.039 203.918)" fill="#811AA5"/>
<circle cx="147.409" cy="202.048" r="18.436" transform="rotate(-26.4935 147.409 202.048)" fill="#911ABB"/>
</svg>
