<svg width="198" height="179" viewBox="0 0 198 179" fill="none" xmlns="http://www.w3.org/2000/svg">
<path d="M28.8906 136.031C-7.927 107 7.89013 63.0314 16.8907 49.5314C18.8905 44.0314 25.9901 31.1314 38.3901 23.5314C53.8901 14.0314 79.8901 8.5314 101.89 9.0314C123.89 9.5314 130.39 15.0314 155.89 35.0314C181.39 55.0314 191.89 93.0314 195.39 106.531C198.89 120.031 197.39 153.531 186.89 166.031C176.39 178.531 170.573 180.5 153.89 178.031C145.703 176.82 109.573 166.031 83.3901 159.531C57.6242 153.135 34.073 140.5 28.8906 136.031Z" fill="url(#paint0_linear_2_193)"/>
<path d="M3.49848 40.6301C1.56632 39.5591 0.868227 37.1246 1.93924 35.1924L2.5139 34.1557C3.58491 32.2235 6.01946 31.5254 7.95161 32.5965L25.9929 42.5969L21.5397 50.6306L3.49848 40.6301Z" fill="#226430"/>
<path d="M168.073 38.1355C113.073 35.1356 36.573 30.6356 16.573 43.1355C22.573 27.8022 46.373 -2.26446 93.573 0.135544C140.773 2.53554 162.906 26.4689 168.073 38.1355Z" fill="#236230"/>
<path d="M168.564 56.1941C114.332 46.5585 38.9391 32.8313 17.573 42.8183C25.385 28.3241 52.6495 1.35948 99.2119 9.45537C145.774 17.5513 164.848 43.9878 168.564 56.1941Z" fill="#357944"/>
<defs>
<linearGradient id="paint0_linear_2_193" x1="197.573" y1="136" x2="-30.927" y2="38" gradientUnits="userSpaceOnUse">
<stop stop-color="#F3B53C"/>
<stop offset="1" stop-color="#D82C2C"/>
</linearGradient>
</defs>
</svg>
