<svg width="184" height="231" viewBox="0 0 184 231" fill="none" xmlns="http://www.w3.org/2000/svg">
<path d="M83.1448 77.6642C68.9874 75.4946 42.9306 58.6105 49.5662 7.8196C93.3783 34.3572 90.2918 65.2522 83.1448 77.6642Z" fill="#0D3716"/>
<path d="M99.6444 80.6552C86.3635 75.2928 64.8797 52.8768 83.0004 4.96659C119.548 40.8551 109.45 70.216 99.6444 80.6552Z" fill="#225E2F"/>
<path d="M108.84 87.7102C121.89 93.6137 152.939 93.6747 175.08 47.485C123.885 45.8307 109.62 73.4088 108.84 87.7102Z" fill="#0D3716"/>
<path d="M92.0758 83.485C106.132 86.2344 136.365 79.1645 147.309 29.1248C97.1017 39.2701 89.5508 69.3867 92.0758 83.485Z" fill="#225E2F"/>
<path d="M57.8588 43C76.8444 43 100.002 54.4075 109.541 60.3023C109.758 60.4365 109.986 60.5399 110.23 60.6168C141.927 70.632 157.84 85.9854 159.255 87.3954C159.332 87.4724 159.383 87.5308 159.449 87.6175C160.645 89.1883 173.335 106.206 172.859 120.5C172.359 135.5 171.859 139.5 159.359 162C146.859 184.5 122.359 197.5 105.859 209.5C89.3589 221.5 62.3589 239 35.8589 226C9.35889 213 8.35883 180.5 5.35883 171.5C2.35883 162.5 -1.14117 130.5 0.358832 108.5C1.85883 86.5 13.8588 65 19.3588 60.5C24.8588 56 33.8588 43 57.8588 43Z" fill="#E91F37"/>
<path d="M57.938 195.301C53.6892 198.892 46.5558 206.663 52.0133 209.02C57.4708 211.377 58.2371 200.856 57.938 195.301Z" fill="#D9D9D9"/>
<path d="M24.938 91.3014C20.6892 94.8923 13.5558 102.663 19.0133 105.02C24.4708 107.377 25.2371 96.8564 24.938 91.3014Z" fill="#D9D9D9"/>
<path d="M152.938 141.301C148.689 144.892 141.556 152.663 147.013 155.02C152.471 157.377 153.237 146.856 152.938 141.301Z" fill="#D9D9D9"/>
<path d="M148.938 103.301C144.689 106.892 137.556 114.663 143.013 117.02C148.471 119.377 149.237 108.856 148.938 103.301Z" fill="#D9D9D9"/>
<path d="M117.938 82.3014C113.689 85.8923 106.556 93.6633 112.013 96.0202C117.471 98.3771 118.237 87.8564 117.938 82.3014Z" fill="#D9D9D9"/>
<path d="M80.938 64.3014C76.6892 67.8923 69.5558 75.6633 75.0133 78.0202C80.4708 80.3771 81.2371 69.8564 80.938 64.3014Z" fill="#D9D9D9"/>
<path d="M48.938 58.3014C44.6892 61.8923 37.5558 69.6633 43.0133 72.0202C48.4708 74.3771 49.2371 63.8564 48.938 58.3014Z" fill="#D9D9D9"/>
<path d="M120.938 119.301C116.689 122.892 109.556 130.663 115.013 133.02C120.471 135.377 121.237 124.856 120.938 119.301Z" fill="#D9D9D9"/>
<path d="M86.938 98.3014C82.6892 101.892 75.5558 109.663 81.0133 112.02C86.4708 114.377 87.2371 103.856 86.938 98.3014Z" fill="#D9D9D9"/>
<path d="M52.938 83.3014C48.6892 86.8923 41.5558 94.6633 47.0133 97.0202C52.4708 99.3771 53.2371 88.8564 52.938 83.3014Z" fill="#D9D9D9"/>
<path d="M126.938 160.301C122.689 163.892 115.556 171.663 121.013 174.02C126.471 176.377 127.237 165.856 126.938 160.301Z" fill="#D9D9D9"/>
<path d="M92.938 133.301C88.6892 136.892 81.5558 144.663 87.0133 147.02C92.4708 149.377 93.2371 138.856 92.938 133.301Z" fill="#D9D9D9"/>
<path d="M57.938 117.301C53.6892 120.892 46.5558 128.663 52.0133 131.02C57.4708 133.377 58.2371 122.856 57.938 117.301Z" fill="#D9D9D9"/>
<path d="M30.938 133.301C26.6892 136.892 19.5558 144.663 25.0133 147.02C30.4708 149.377 31.2371 138.856 30.938 133.301Z" fill="#D9D9D9"/>
<path d="M84.938 171.301C80.6892 174.892 73.5558 182.663 79.0133 185.02C84.4708 187.377 85.2371 176.856 84.938 171.301Z" fill="#D9D9D9"/>
<path d="M65.938 152.301C61.6892 155.892 54.5558 163.663 60.0133 166.02C65.4708 168.377 66.2371 157.856 65.938 152.301Z" fill="#D9D9D9"/>
<path d="M40.938 166.301C36.6892 169.892 29.5558 177.663 35.0133 180.02C40.4708 182.377 41.2371 171.856 40.938 166.301Z" fill="#D9D9D9"/>
</svg>
