<svg width="341" height="343" viewBox="0 0 341 343" fill="none" xmlns="http://www.w3.org/2000/svg">
<rect x="67" y="68.3648" width="25.0565" height="79.9743" rx="10" transform="rotate(-3.12238 67 68.3648)" fill="#B5C749"/>
<rect x="326.257" y="193.653" width="22.4602" height="12.1888" transform="rotate(67.5689 326.257 193.653)" fill="#090909"/>
<path d="M318.55 202.355C179.862 282.58 94.74 164.963 69.5151 96.1254C61.0216 110.302 55.731 131.162 54.1473 139.819C52.0068 190.698 87.4337 246.146 175.422 272.928C245.812 294.353 308.765 243.553 331.443 215.475L318.55 202.355Z" fill="#EAB809"/>
<path d="M69.2248 96.9711C133.733 268.561 262.01 239.209 319.672 202.927L324.209 194.993C315.9 192.187 291.716 196.065 280.663 198.355C257.784 202.933 203.012 205.86 166.959 180.944C130.906 156.028 102.851 117.08 93.3299 100.721C80.081 86.7681 71.4141 92.7244 69.2248 96.9711Z" fill="#F6C720"/>
</svg>
