<svg width="258" height="189" viewBox="0 0 258 189" fill="none" xmlns="http://www.w3.org/2000/svg">
<path d="M142.773 80.4399C159.934 74.8996 185.76 52.06 154.577 3.8472C110.325 40.4341 128.077 69.9898 142.773 80.4399Z" fill="#79BE22"/>
<path d="M185.37 89.8108C203.989 90.8362 236.912 78.7164 222.78 21.9411C167.23 40.3077 174.562 74.616 185.37 89.8108Z" fill="#79BE22"/>
<path d="M88.5692 111.223C70.9453 111.7 39.3832 98.8301 51.1593 43.3532C104.354 63.0182 98.3829 96.5764 88.5692 111.223Z" fill="#79BE22"/>
<ellipse cx="50.0263" cy="46.145" rx="50.0263" ry="46.145" transform="matrix(-0.863631 0.504125 0.504125 0.863631 137.297 14)" fill="#5543C8"/>
<ellipse cx="43.9887" cy="37.5197" rx="43.9887" ry="37.5197" transform="matrix(-0.863631 0.504125 0.504125 0.863631 129.973 20.2728)" fill="#614FD0"/>
<path d="M102.652 52.5314C99.465 50.4964 95.3119 52.9207 95.5166 56.6967V56.6967C95.6397 58.9671 94.1007 60.9927 91.8803 61.4826V61.4826C88.1876 62.2975 86.9652 66.9484 89.7799 69.4737V69.4737C91.4724 70.9921 91.8165 73.5126 90.5929 75.4291V75.4291C88.558 78.6164 90.9822 82.7695 94.7582 82.5648V82.5648C97.0286 82.4417 99.0542 83.9807 99.5442 86.201V86.201C100.359 89.8937 105.01 91.1162 107.535 88.3014V88.3014C109.054 86.609 111.574 86.2649 113.491 87.4885V87.4885C116.678 89.5234 120.831 87.0991 120.626 83.3232V83.3232C120.503 81.0528 122.042 79.0272 124.263 78.5372V78.5372C127.955 77.7224 129.178 73.0715 126.363 70.5462V70.5462C124.671 69.0278 124.326 66.5072 125.55 64.5908V64.5908C127.585 61.4035 125.161 57.2504 121.385 57.4551V57.4551C119.114 57.5781 117.089 56.0391 116.599 53.8188V53.8188C115.784 50.1261 111.133 48.9037 108.608 51.7184V51.7184C107.089 53.4109 104.569 53.7549 102.652 52.5314V52.5314Z" fill="#2E2085"/>
<ellipse cx="7.76271" cy="7.33144" rx="7.76271" ry="7.33144" transform="matrix(-0.863631 0.504125 0.504125 0.863631 111.297 60.1374)" fill="#4333A3"/>
<ellipse cx="50.0263" cy="46.145" rx="50.0263" ry="46.145" transform="matrix(-0.863631 0.504125 0.504125 0.863631 86.4086 57.9887)" fill="#5543C8"/>
<ellipse cx="43.9887" cy="37.5197" rx="43.9887" ry="37.5197" transform="matrix(-0.863631 0.504125 0.504125 0.863631 79.0842 64.2614)" fill="#614FD0"/>
<path d="M51.7635 96.5201C48.5762 94.4851 44.4231 96.9094 44.6278 100.685V100.685C44.7509 102.956 43.2119 104.981 40.9915 105.471V105.471C37.2989 106.286 36.0764 110.937 38.8912 113.462V113.462C40.5836 114.981 40.9277 117.501 39.7041 119.418V119.418C37.6692 122.605 40.0934 126.758 43.8694 126.553V126.553C46.1398 126.43 48.1654 127.969 48.6554 130.19V130.19C49.4702 133.882 54.1211 135.105 56.6464 132.29V132.29C58.1648 130.598 60.6853 130.254 62.6018 131.477V131.477C65.7891 133.512 69.9422 131.088 69.7375 127.312V127.312C69.6144 125.041 71.1534 123.016 73.3737 122.526V122.526C77.0664 121.711 78.2889 117.06 75.4741 114.535V114.535C73.7817 113.016 73.4376 110.496 74.6612 108.579V108.579C76.6961 105.392 74.2719 101.239 70.4959 101.444V101.444C68.2255 101.567 66.1999 100.028 65.7099 97.8075V97.8075C64.8951 94.1148 60.2442 92.8923 57.7189 95.7071V95.7071C56.2005 97.3996 53.68 97.7436 51.7635 96.5201V96.5201Z" fill="#2E2085"/>
<ellipse cx="7.76271" cy="7.33144" rx="7.76271" ry="7.33144" transform="matrix(-0.863631 0.504125 0.504125 0.863631 60.4082 104.126)" fill="#4333A3"/>
<ellipse cx="191.533" cy="82.5218" rx="50.0263" ry="46.145" transform="rotate(30.2733 191.533 82.5218)" fill="#5543C8"/>
<ellipse cx="197.991" cy="78.3019" rx="43.9887" ry="37.5197" transform="rotate(30.2733 197.991 78.3019)" fill="#614FD0"/>
<path d="M206.236 55.9815C209.424 53.9465 213.577 56.3708 213.372 60.1468V60.1468C213.249 62.4172 214.788 64.4428 217.008 64.9327V64.9327C220.701 65.7476 221.924 70.3985 219.109 72.9238V72.9238C217.416 74.4422 217.072 76.9627 218.296 78.8792V78.8792C220.331 82.0665 217.907 86.2196 214.131 86.0149V86.0149C211.86 85.8918 209.835 87.4308 209.345 89.6511V89.6511C208.53 93.3438 203.879 94.5663 201.354 91.7515V91.7515C199.835 90.0591 197.315 89.715 195.398 90.9386V90.9386C192.211 92.9735 188.058 90.5492 188.262 86.7733V86.7733C188.386 84.5029 186.847 82.4773 184.626 81.9873V81.9873C180.934 81.1725 179.711 76.5216 182.526 73.9963V73.9963C184.218 72.4779 184.562 69.9573 183.339 68.0409V68.0409C181.304 64.8536 183.728 60.7005 187.504 60.9052V60.9052C189.775 61.0282 191.8 59.4893 192.29 57.2689V57.2689C193.105 53.5762 197.756 52.3538 200.281 55.1685V55.1685C201.799 56.861 204.32 57.2051 206.236 55.9815V55.9815Z" fill="#2E2085"/>
<ellipse cx="200.6" cy="73.8325" rx="7.76271" ry="7.33144" transform="rotate(30.2733 200.6 73.8325)" fill="#4333A3"/>
<ellipse cx="195.793" cy="133.459" rx="50.0263" ry="46.145" fill="#5543C8"/>
<ellipse cx="199.243" cy="126.559" rx="43.9887" ry="37.5197" fill="#614FD0"/>
<path d="M195.112 103.126C196.838 99.7617 201.647 99.7617 203.374 103.126V103.126C204.412 105.149 206.763 106.122 208.927 105.426V105.426C212.527 104.268 215.927 107.669 214.77 111.269V111.269C214.073 113.433 215.047 115.783 217.07 116.822V116.822C220.434 118.548 220.434 123.357 217.07 125.084V125.084C215.047 126.122 214.073 128.473 214.77 130.637V130.637C215.927 134.237 212.527 137.637 208.927 136.48V136.48C206.763 135.783 204.412 136.757 203.374 138.78V138.78C201.647 142.144 196.838 142.144 195.112 138.78V138.78C194.073 136.757 191.723 135.783 189.558 136.48V136.48C185.959 137.637 182.558 134.237 183.716 130.637V130.637C184.412 128.473 183.439 126.122 181.416 125.084V125.084C178.052 123.357 178.052 118.548 181.416 116.822V116.822C183.439 115.783 184.412 113.433 183.716 111.269V111.269C182.558 107.669 185.959 104.268 189.558 105.426V105.426C191.723 106.122 194.073 105.149 195.112 103.126V103.126Z" fill="#2E2085"/>
<ellipse cx="199.243" cy="121.384" rx="7.76271" ry="7.33144" fill="#4333A3"/>
<ellipse cx="121.616" cy="130.009" rx="50.0263" ry="46.145" fill="#5543C8"/>
<ellipse cx="125.066" cy="123.109" rx="43.9887" ry="37.5197" fill="#614FD0"/>
<path d="M120.935 99.6758C122.661 96.3116 127.47 96.3116 129.197 99.6758V99.6758C130.235 101.699 132.586 102.672 134.75 101.976V101.976C138.35 100.818 141.75 104.219 140.593 107.818V107.818C139.896 109.983 140.87 112.333 142.893 113.371V113.371C146.257 115.098 146.257 119.907 142.893 121.634V121.634C140.87 122.672 139.896 125.023 140.593 127.187V127.187C141.75 130.787 138.35 134.187 134.75 133.029V133.029C132.586 132.333 130.235 133.307 129.197 135.33V135.33C127.47 138.694 122.661 138.694 120.935 135.33V135.33C119.896 133.307 117.546 132.333 115.382 133.029V133.029C111.782 134.187 108.381 130.787 109.539 127.187V127.187C110.235 125.023 109.262 122.672 107.239 121.634V121.634C103.875 119.907 103.875 115.098 107.239 113.371V113.371C109.262 112.333 110.235 109.983 109.539 107.818V107.818C108.381 104.219 111.782 100.818 115.382 101.976V101.976C117.546 102.672 119.896 101.699 120.935 99.6758V99.6758Z" fill="#2E2085"/>
<ellipse cx="125.066" cy="117.934" rx="7.76271" ry="7.33144" fill="#4333A3"/>
</svg>
