<svg width="160" height="231" viewBox="0 0 160 231" fill="none" xmlns="http://www.w3.org/2000/svg">
<path d="M55.4328 75.1231C77.3751 23.6131 102.054 17.8682 111.65 21.4345C120.015 22.0435 140.245 36.0238 143.358 55.4762C146.47 74.9286 139.11 110.84 148.836 125.819C158.562 140.797 164.95 173.358 151.333 193.588C137.716 213.819 116.902 224.518 95.3103 229.186C73.7181 233.855 48.819 224.907 27.2269 212.068C15.1979 204.916 2.16483 190.011 0.382545 164.215C-4.13041 134.647 32.3161 95.6673 55.4328 75.1231Z" fill="#9EE04A"/>
<path d="M5.86084 187.288C21.0986 198.57 62.2728 218.334 101.956 204.795C141.639 191.256 147.02 145.465 144.751 124.262L143.658 105.683C143.485 104.19 143.389 102.666 143.389 101.114L143.658 105.683C145.072 117.852 151.684 127.967 154.283 134.378C156.617 140.135 158.238 152.598 158.757 158.11C162.453 186.705 144.751 211.215 110.32 224.831C75.8895 238.448 52.9356 224.248 33.0942 215.3C17.221 208.141 8.32481 193.643 5.86084 187.288Z" fill="#79BE22"/>
<rect x="113.69" width="8.9481" height="25.8519" rx="4.47405" transform="rotate(18 113.69 0)" fill="#573808"/>
</svg>
